<?xml version="1.0" encoding="utf-8"?>
<svg xmlns="http://www.w3.org/2000/svg" fill="none" height="79" viewBox="0 0 30 79" width="30">
<path clip-rule="evenodd" d="M0.027832 77.9855C1.37511 76.4723 2.68091 75.0954 3.82793 73.9306C3.70351 73.3346 3.76038 73.6095 3.55776 72.6118C1.58721 71.4873 0.827665 69.2169 3.24138 66.1195C4.7107 67.0402 5.51172 69.1292 3.8931 72.2871L4.34456 73.4057C4.98442 72.7551 4.49623 73.2256 7.38985 70.4943L7.19552 69.1897C5.38849 68.0154 4.83512 65.7344 6.7488 63.0517C8.13754 63.9357 9.16844 66.0697 7.53441 68.8911L7.91122 70.0014C9.1874 68.7963 9.82015 68.2168 10.9411 67.0805C10.8428 66.5259 10.8866 66.7641 10.7112 65.8339C8.86391 64.7331 8.26907 62.5339 9.91495 59.914C11.0975 60.5775 12.5503 62.5765 11.0158 65.5389C11.3369 66.3375 11.2563 66.1349 11.4293 66.584C12.3962 65.5827 13.3406 64.5388 14.2554 63.4534C14.1547 63.028 14.1547 63.0387 13.9473 62.253C12.1948 61.3478 11.3819 59.4921 12.7612 56.5665C14.3573 57.3213 15.3526 59.3357 14.2222 61.9473C14.5789 62.7021 14.49 62.5114 14.6867 62.9391C15.464 61.9947 16.348 60.8773 17.2414 59.5751C17.072 59.0525 17.1454 59.2741 16.8575 58.4174C15.0303 57.6294 14.1689 55.6103 15.2472 53.007C16.4712 53.4691 18.091 55.1162 17.104 58.1046C17.4997 58.8132 17.3966 58.6271 17.6159 59.03C18.3825 57.9174 19.2475 56.4895 19.8388 55.4183C19.7239 55.1422 19.6907 55.07 19.3589 54.3223C17.623 53.7369 16.5056 51.9192 17.2924 49.2341C18.2285 49.4913 20.3175 50.79 19.5639 53.9964C20.0094 54.6517 19.898 54.487 20.1398 54.8507C20.3981 54.359 21.0818 53.1101 21.9456 50.9985C21.743 50.6134 21.7643 50.6573 21.3792 49.9807C19.6765 49.579 18.3908 47.9366 18.8553 45.2693C19.8151 45.4281 21.935 46.5064 21.5404 49.6465C22.0357 50.2402 21.9136 50.092 22.1779 50.4179C22.7016 49.0754 23.1377 47.6985 23.4931 46.3547C23.3059 46.0739 23.3403 46.1272 22.8367 45.4269C21.0782 45.1959 19.7535 43.6981 19.885 41.1363C21.0806 41.2003 22.9718 42.2241 22.954 45.088C23.4931 45.613 23.3628 45.4838 23.6448 45.7658C23.9517 44.5323 24.2148 43.1839 24.415 41.551C24.0832 41.1706 24.2254 41.3318 23.6756 40.7192C22.0369 40.6765 20.5438 39.4809 20.34 36.8717C21.9278 36.7876 23.5796 38.1621 23.7538 40.3803C24.3273 40.8318 24.1899 40.7227 24.4826 40.9597C24.6366 39.52 24.7042 38.0874 24.6852 36.6738C24.5335 36.5316 24.0358 36.0671 23.8783 35.9332C21.8579 36.0837 20.5948 34.5303 20.2358 32.5277C21.6363 32.3132 23.3367 33.2493 23.9055 35.5991C24.4411 35.9309 24.4411 35.9297 24.6722 36.079C24.6188 34.3632 24.4387 32.6012 24.3072 31.7859C23.9055 31.4873 24.0773 31.6129 23.4398 31.1484C21.9314 31.3997 20.3116 30.5986 19.5734 28.16C21.0095 27.8128 22.7727 28.7786 23.4375 30.8238C24.0607 31.1366 23.9126 31.0608 24.216 31.2184C24.0027 29.8782 23.7325 28.5428 23.3225 26.9846C22.7917 26.6516 22.8699 26.6978 22.4243 26.4348C20.9017 26.8116 19.3933 26.1492 18.405 23.8232C19.2096 23.5672 21.224 23.6288 22.3876 26.1243C23.0215 26.3755 22.8699 26.3151 23.1744 26.4383C22.8462 25.2569 22.3651 23.7829 21.8022 22.3171C21.5344 22.1761 21.2821 22.0446 20.8875 21.8467C19.4964 22.2839 17.8386 21.7389 16.7781 19.5633C17.7983 19.1747 19.6291 19.4626 20.8247 21.5505C21.4669 21.7519 21.3105 21.7021 21.5996 21.7993C21.0297 20.3596 20.4633 19.113 19.821 17.8203C19.3862 17.6283 19.5722 17.7101 18.8968 17.4174C17.1798 18.0501 15.6998 17.0323 14.7459 15.4172C15.7768 14.9741 17.5519 15.2573 18.8162 17.1377C19.443 17.2965 19.2985 17.2598 19.5769 17.3344C18.8695 15.9469 18.1455 14.6754 17.4417 13.5178C17.0886 13.3827 16.8326 13.2831 16.5139 13.1718C15.2211 13.7014 13.5669 13.2974 12.3607 11.4109C13.3299 10.9536 15.0694 11.1503 16.4226 12.9075C17.021 13.0296 17.0293 13.0308 17.1608 13.0592C16.5411 12.0544 15.6335 10.6869 14.7151 9.41551L13.8027 9.11809C12.6024 9.64657 10.9944 9.39537 9.66493 7.57649C10.6757 7.07052 12.3524 7.30158 13.7008 8.87044C13.9876 8.91428 14.2317 8.95813 14.4047 8.98775C13.4544 7.6938 12.5657 6.58233 11.6829 5.53484C11.2634 5.41516 11.4411 5.46375 10.7764 5.28245C9.61516 5.82397 8.03445 5.62608 6.68125 3.9802C7.54744 3.49082 9.22176 3.52993 10.6686 5.04902L11.5502 5.16514C11.4542 4.83454 11.3748 4.55845 11.2729 4.23023C9.85807 3.11402 9.11986 1.5736 9.00847 0C10.9826 1.03445 11.7137 2.70521 11.498 4.30251C11.8037 5.03006 11.7101 4.80492 11.9447 5.37843C12.7375 6.31453 13.4887 7.24708 14.2483 8.25072C14.2708 7.88931 14.2613 8.05283 14.2957 7.42719C13.0254 5.68533 13.0847 3.98257 13.5764 3.12942C15.2614 4.73856 15.2815 6.48516 14.5078 7.58241C14.5623 8.2756 14.5718 8.39528 14.5907 8.7081C15.3692 9.75559 16.1904 10.9287 16.9369 12.0816C16.9713 11.9359 16.9464 12.0496 17.0791 11.4335C15.9249 9.32309 16.3812 7.62863 16.9961 6.92477C18.5709 8.87281 18.3173 10.6443 17.2876 11.6302C17.2319 12.3565 17.2462 12.1788 17.2177 12.5165C17.9844 13.7239 18.7356 14.9918 19.462 16.3509C19.5319 16.1566 19.4892 16.2787 19.7025 15.6649C18.7842 13.5225 19.2914 11.7901 20.1113 11.0578C21.5025 13.1564 21.1505 14.9705 19.8945 15.8936C19.7535 16.6294 19.7914 16.4339 19.7144 16.8261C20.5296 18.3867 21.0723 19.5633 21.6032 20.8217C21.7217 20.5871 21.6589 20.7139 21.9551 20.1179C21.2121 17.6674 22.0688 16.0358 22.9042 15.4646C24.1828 17.9719 23.422 19.6806 22.1257 20.3774C21.8935 21.1049 21.9539 20.9177 21.8165 21.3372C22.3035 22.5245 22.7561 23.7047 23.2976 25.4797C23.4256 25.2949 23.5891 25.0614 23.7704 24.7794C23.3355 22.3503 24.2622 20.6712 25.3203 20.151C26.1083 22.2472 25.8784 24.3469 23.9185 25.0697C23.5808 25.7795 23.6721 25.5911 23.46 26.0248C23.8474 27.3507 24.165 28.5807 24.4766 30.2917C24.7196 30.0263 24.6082 30.1484 25.0774 29.6258C24.9767 26.8874 26.2351 25.4524 27.279 25.1171C28.0125 28.0486 26.7956 29.6211 25.1923 29.9457C24.9103 30.3853 24.9625 30.3071 24.5774 30.8664C24.8132 32.2694 24.9921 33.7553 25.0679 35.2009C25.3796 34.9557 25.2421 35.0658 25.8073 34.6096C26.0656 31.8274 27.5527 30.5169 28.6938 30.3403C29.0588 33.3963 27.625 34.8893 25.8725 34.9568C25.3179 35.5718 25.472 35.4024 25.094 35.8124C25.1473 37.2402 25.1224 38.6929 25.0134 40.1563C25.4044 39.9371 25.2421 40.0295 25.8808 39.6598C26.651 36.6489 28.4533 35.7567 29.4771 35.7697C29.3645 39.0532 27.6914 40.2606 25.8998 40.0272C25.4424 40.4064 25.5146 40.3471 24.9601 40.7737C24.8238 42.1992 24.594 43.6306 24.2894 45.0549C24.7942 44.8759 24.7314 44.9008 25.2812 44.6864C26.4093 41.9254 28.3514 41.0972 29.5316 41.3152C29.1263 43.883 27.5492 45.7741 25.2457 45.0667C24.4683 45.5063 24.7113 45.3712 24.1508 45.6781C23.8309 47.0716 23.409 48.4509 22.922 49.81C23.2621 49.746 23.5856 49.6868 24.0145 49.5932C25.6509 46.7967 27.8182 46.4792 28.8396 46.8536C27.9864 49.4534 26.1486 51.0815 23.9162 49.9747C23.0713 50.2958 23.3284 50.1999 22.6957 50.4309C22.1921 51.7924 21.3697 53.5947 20.9716 54.3554C21.6044 54.3306 21.5344 54.3353 22.1305 54.2962C23.9956 51.9334 26.1841 51.5625 27.42 52.2581C26.2955 54.7074 24.069 56.1613 21.98 54.6742C21.0747 54.8756 21.3567 54.814 20.6576 54.9598C19.8435 56.5191 19.2736 57.4351 18.5081 58.6449C19.1302 58.6982 18.8837 58.6781 19.712 58.7397C22.108 56.422 24.3368 56.6364 25.3464 57.4209C23.7692 59.8192 21.4515 60.901 19.5129 59.1094C18.7984 59.1841 18.9382 59.1698 18.1218 59.2291C17.6846 59.8701 16.8646 61.1025 15.6204 62.6547C16.2745 62.7922 16.0221 62.7412 16.8622 62.9095C19.731 60.8216 21.7821 61.3229 22.7265 62.2815C20.8614 64.4476 18.4311 65.4073 16.6122 63.2602C15.6477 63.2377 15.9546 63.246 15.163 63.2188C14.2696 64.3196 13.343 65.3789 12.3927 66.3956C13.0657 66.6101 12.8157 66.5319 13.6463 66.789C16.6596 64.944 18.8008 65.7048 19.6634 66.8127C17.6194 68.8591 14.9474 69.4634 13.3607 67.1291C12.9531 67.0793 12.2836 66.9987 11.8784 66.9383C10.8996 67.9621 9.89954 68.9456 8.88761 69.8829C9.58198 70.1755 9.31537 70.0653 10.1448 70.4078C13.1534 68.8306 15.4024 69.6696 16.2532 71.0311C13.1771 73.4187 10.9198 72.7172 9.82608 70.7336C8.84969 70.5239 9.1637 70.5926 8.33543 70.4078C8.30699 70.435 5.35294 73.2445 5.32687 73.2718L6.63978 73.8251C9.58672 72.338 11.7812 73.3938 12.6213 74.9058C9.69574 76.9001 7.38392 76.0564 6.31985 74.1474C5.82573 74.0384 5.40271 73.9543 4.77825 73.8287C3.51747 75.1096 2.03393 76.6797 0.519581 78.3883C0.35843 78.2509 0.198463 78.1122 0.027832 77.9855Z" fill="#FFD640" fill-rule="evenodd"/>
</svg>